<svg viewBox="0 0 24 24" fill="none" xmlns="http://www.w3.org/2000/svg">
    <path fill-rule="evenodd" clip-rule="evenodd" d="M19.75 12C19.75 12.4142 19.4142 12.75 19 12.75L5 12.75C4.58578 12.75 4.25 12.4142 4.25 12C4.25 11.5858 4.58578 11.25 5 11.25L19 11.25C19.4142 11.25 19.75 11.5858 19.75 12Z" fill="currentColor"/>
    <path fill-rule="evenodd" clip-rule="evenodd" d="M4.46967 12.5303C4.17678 12.2374 4.17678 11.7626 4.46967 11.4697L8.46967 7.46967C8.76256 7.17678 9.23744 7.17678 9.53033 7.46967C9.82322 7.76256 9.82322 8.23744 9.53033 8.53033L5.53033 12.5303C5.23744 12.8232 4.76256 12.8232 4.46967 12.5303Z" fill="currentColor"/>
    <path fill-rule="evenodd" clip-rule="evenodd" d="M9.53033 16.5303C9.23744 16.8232 8.76256 16.8232 8.46967 16.5303L4.46967 12.5303C4.17678 12.2374 4.17678 11.7626 4.46967 11.4697C4.76256 11.1768 5.23744 11.1768 5.53033 11.4697L9.53033 15.4697C9.82322 15.7626 9.82322 16.2374 9.53033 16.5303Z" fill="currentColor"/>
</svg>
